<svg xmlns="http://www.w3.org/2000/svg" viewBox="0 0 120 120" role="img" aria-label="Harimau Sumatra">
  <defs>
    <linearGradient id="bg" x1="0" y1="0" x2="1" y2="1">
      <stop offset="0%" stop-color="#f59e0b"/>
      <stop offset="100%" stop-color="#b45309"/>
    </linearGradient>
  </defs>
  <circle cx="60" cy="60" r="56" fill="url(#bg)"/>
  <circle cx="60" cy="60" r="50" fill="none" stroke="#fff7ed" stroke-width="4" opacity="0.65"/>
  <path d="M33 38c7-10 18-15 27-15s20 5 27 15l-10 6c-4-5-10-8-17-8s-13 3-17 8z" fill="#4a2d16" opacity="0.9"/>
  <path d="M35 73c8-13 18-19 25-19s17 6 25 19l-10 7c-4-8-9-12-15-12s-11 4-15 12z" fill="#4a2d16" opacity="0.9"/>
  <text x="60" y="66" text-anchor="middle" font-family="IBM Plex Sans, Arial, sans-serif" font-size="30" font-weight="700" fill="#fff7ed">HS</text>
  <text x="60" y="90" text-anchor="middle" font-family="IBM Plex Sans, Arial, sans-serif" font-size="10" letter-spacing="1.5" fill="#fff7ed">HARIMAU</text>
</svg>
